<svg xmlns="http://www.w3.org/2000/svg" viewBox="0 0 512 512" role="img" aria-labelledby="title desc">
  <title id="title">Kora Exports logo</title>
  <desc id="desc">Circular Kora Exports turmeric and spices logo.</desc>
  <rect width="512" height="512" fill="#fbfaf4"/>
  <circle cx="256" cy="256" r="204" fill="none" stroke="#c29122" stroke-width="8"/>
  <g fill="none" stroke="#c29122" stroke-width="10" stroke-linecap="round" stroke-linejoin="round">
    <path d="M163 185c19 27 25 55 14 86 41-27 90-30 138-11 24 10 47 8 70-6-31 28-70 50-118 59-58 10-105-4-143-42 30 12 54 12 72 1"/>
    <path d="M203 145c26 42 29 80 7 115"/>
    <path d="M303 151c-7 43 2 79 28 107"/>
    <path d="M233 122h52v137h-52z"/>
    <path d="M250 94h25v28h-25z"/>
    <path d="M250 94c16-5 31-2 45 9"/>
    <path d="M197 183c19-24 40-36 62-36 24 0 46 13 66 40"/>
  </g>
  <text x="256" y="363" text-anchor="middle" fill="#3d2515" font-family="Inter, Arial, sans-serif" font-size="72" letter-spacing="12">KORA</text>
  <text x="256" y="418" text-anchor="middle" fill="#3d2515" font-family="Inter, Arial, sans-serif" font-size="40" letter-spacing="8">EXPORTS</text>
  <text x="256" y="455" text-anchor="middle" fill="#3d2515" font-family="Inter, Arial, sans-serif" font-size="17" letter-spacing="4">TURMERIC &amp; SPICES</text>
</svg>
